<?xml version="1.0" encoding="UTF-8" standalone="no"?>
<svg xmlns="http://www.w3.org/2000/svg" width="344.10754" height="424.35635" version="1.0">
  <g>
    <path
      fill="#f10000"
      fill-opacity="1"
      stroke="#050000"
      stroke-dasharray="none"
      stroke-dashoffset="0"
      stroke-linecap="butt"
      stroke-linejoin="miter"
      stroke-miterlimit="4"
      stroke-opacity="1"
      stroke-width="3"
      d="M39.6575 62.69047c1.33609-10.9046 27.77552 3.22026 37.74657 8.90043.93378.10652 10.33507 4.26275 10.99743 5.5067.66235 1.24395-7.41423-.4244-6.95095 1.71926.46329 2.14365.59513 4.92772.9317 7.73335.33657 2.80563 9.12787 7.63282 9.41008 10.86271.28221 3.22989-8.44468-4.38752-8.14447-.9711.3002 3.41642.12749 6.61668.51804 9.98192.39054 3.36523 9.59436 14.14544 10.14761 17.22176.27663 1.53816-9.48439-10.28715-9.96602-6.92829-.48164 3.35885 4.06611 15.90188 4.46026 17.17673 7.19101 18.45386 16.87489 31.19252 30.65152 37.93939 4.31971 5.47921 2.37858.58162-3.56277 12.35065l5.23809-11.35065c-2.75824-7.35443-2.57208-14.30215-2.17532-22.97619 1.92374-4.21236 6.97156-9.20573 12.62554-14.35065 2.27179-4.24603.91465-8.49207-.5-12.7381-4.09448-2.67155-5.97852-4.29089-11.35065-13.35065-3.84415-3.0469 1.28145-8.82867 2.61256-14.4632 14.52787-21.3906 38.72573-33.81831 56.22437-51.8846 3.44188 4.45022 2.62405 9.60754 1.4661 14.05776-2.33652 7.84144-6.62568 14.38112-11.78076 20.34353C193.53422 53.46549 199.74534 48.22451 236.77745 1.5c5.09393 1.28404 6.34745 11.28251 5.76112 22.24184-17.34039 31.97285-25.93306 43.57094-45.88961 63.53738 31.28384-18.69972 53.14513-41.27745 89.08087-73.23947 6.51836 6.59115 8.47228 10.39876 5.56277 14.16154-3.72384 14.7983-13.29416 22.2009-19.56863 31.04773-26.87609 22.84043-42.13268 31.15647-62.30303 45.61472 34.70758-10.12043 69.41516-30.76858 104.12274-48.84859 5.88089 3.94384-.50648 12.50349-2.52676 20.83687-9.00183 16.85095-61.28505 34.36439-88.08965 42.63061 32.82217-2.2635 64.46317-5.59658 95.52397-10.82389-1.67563 5.74593.27596 13.17234-9.30588 16.28287-8.82281 5.21765-16.82886 7.00941-26.75319 10.06488-22.68809 3.38728-39.6368 2.47002-58.96537 3.33766 9.36018 4.37797 51.24273 12.63718 76.11102 14.97244-.47359 9.45788-8.78588 11.70133-13.7042 15.82553-8.56418.75945-17.12835 2.09738-25.69253-.75901-29.35586-5.3297-34.14616-9.5995-48.8486-11.12554 16.03375 12.04106 34.24278 22.15135 59.5168 30.4963 2.77616 3.92692-5.17773 7.85384-12.84142 8.95233-5.48824.83774-8.63569 3.72366-21.19042-1.62179-17.84642-5.58303-28.07021-10.4731-35.60173-15.11842 6.50611 14.17633 31.85892 24.74488 34.38539 33.32473-8.43544 8.0967-17.16008 3.49726-23.86317 2.93222-11.5072-4.43617-17.6505-11.55428-25.74443-17.69708 6.26766 7.17687 8.29579 11.65586 4.20046 12.2381-9.53241 4.53827-18.34212 4.97416-22.35487-2.3289 3.82538 7.65547 13.04883 6.1259 19.51345 3.88959 11.91708-2.95683 36.28291 19.65948 47.23979 27.26193 28.84427-1.37389 56.5969-1.29226 83.44156 0 19.56207 2.59596 21.70121 5.19191 22.25108 7.78787.5255 4.60486-2.93596 5.22277-5.56277 6.67533l-95.72943-11.62554c34.37721 4.86889 80.21318 6.74909 103.65476 18.30086-.05422 4.06712-7.55811 4.78514-10.78788 8.26299-40.30016-16.33988-53.49343-11.98132-79.46645-18.27597 31.21548 4.0154 62.37816 9.5836 84.329 22.86363 3.23021 4.94358-1.49251 5.10996-3.25 6.31277l-6.90043 1.36256c-26.97998-5.58603-53.42172-13.86324-79.74134-22.75108l79.96645 24.70129c7.28831 3.26263 4.83581 6.52525 4.58766 9.78788-9.47896 1.50748-8.27409 2.20779-11.73809 1-29.46393-8.95682-58.92785-21.9266-88.39178-33.26407l89.97944 35.71429c8.06108 8.14919 3.67484 8.00016 2.36255 9.90043-5.95388-1.50366-10.05362-1.15318-13.35065 0-30.69769-11.08659-58.32878-26.93956-88.36688-40.6645l90.11688 43.38961c4.05299 2.42929 2.71993 4.85859 1.58766 7.28788-7.54832.50215-12.89042-1.20193-17.80086-3.33766-42.11607-16.53738-58.67385-29.83897-92.50737-48.15119l7.03857 4.15826c-11.89378 7.34221-22.55346 6.04571-33.57449 7.27864l-3.33766-13.35065c2.46898 19.26613 15.37283 41.38666 21.24231 60.78503-11.2652 13.5615-16.0767 30.70839-18.91342 48.95239 9.56305.59995 16.46808-.5721 23.25985-1.81967 3.25786.76986 4.79067.61901 7.13266 5.96822l-3.795 9.60754c-.92093-6.05606-.52198-10.60356-7.78788-8.90043 2.81786 4.04212-4.49542 3.34176-8.54688 5.66655l-12.59164 1.00877c-2.20316 1.86524-4.11163 3.87781-4.45022 6.67533-1.70906-1.59532-3.26159 5.40521-4.04477 14.92054-2.39295 4.58688-4.69685 8.15897-8.95233 8.08954-.47271 5.07725.21258 5.61842 4.39832 8.95233-3.11895-1.5278-8.70608-.23607-9.20209-5.26112-.97101-7.37117 7.10645-19.09761 10.31465-27.30462-3.71908 9.28152-11.92574 9.58788-19.21508 11.72887-2.68766 1.20947-3.72477-.88217-4.554-3.38956-3.03994 1.74229-4.88137 4.92279-3.23388 12.28999-1.67075-3.87428-5.87724-1.40919-4.20045-13.65231 5.25078-3.89218 9.73424-6.24972 13.10089-6.37366 12.05696-7.86549 14.95034-8.40011 17.80086-8.90044-2.61577.12277-2.12708-.48492-20.02597 3.23388-2.97181-1.91112-4.11928-4.80867-3.44145-7.6322-7.36223.10411-9.45872 8.12974-11.4272 9.80541-1.13064-2.6409-2.42936-5.23979.10379-8.79664.44134-2.87892 6.61935-5.45892 13.6523-5.51088 7.05806 1.76891 14.50072 1.99939 22.50085 0 6.96891-15.56978 12.45228-32.62508 17.5511-50.06494l-2.22511-5.56277c-50.03988-44.2789-46.15631-47.84008-52.29004-58.96536 6.01111 10.41991-10.20304-14.33923 20.37952 35.90338 8.09405 13.90726 5.62728 16.76788 4.80378 19.97408-13.43014 14.78415-26.78791 28.07916-30.74607 42.0273 2.06436.02992 9.47063-2.6149 16.68831-4.45022 7.91427 1.32952 7.15039 2.70923 7.78788 7.78788-1.85426 3.95233-3.70851 5.32865-5.56277 6.67532.31729-3.43801 5.47866-12.54895-5.31277-8.67532-5.27525 8.80462-11.55051 6.56841-16.82576 8.40043-3.45677 4.7421-6.19921 4.48395-9.01299 4.72511-1.68364 5.56277-4.99604 11.12554-10.01298 16.68831-3.12625-.29201-7.14949-1.70525-7.78788 1.11256-1.56091 2.90276 1.45904 6.45993 4.45021 10.01298-4.919-1.50285-10.83673-2.78376-10.01298-5.56277-.472-5.04022 1.18293-6.10926 3.20021-8.03788 3.76679-4.38223 9.39939-12.682 12.51299-17.7132-3.42792 7.63301-9.36488 8.0619-14.12554 8.42533-7.6817.02056-10.24649-1.87771-12.7132-3.81277-3.33841 2.61856-2.22733 9.36548-1.58767 12.65043-4.60554-1.68618-4.75344-7.00251-4.70021-14.01299 11.63648-5.54546 20.71228-7.15886 31.12662-9.03788-8.15261 1.3155-16.24516 2.43878-21.13853-6.67532-5.72844-.3952-8.35289 4.02893-8.40043 7.08766-3.37733.6281-3.45493-2.97921 2.47511-12.9881 10.3149-3.24297 26.52275 6.1217 34.48918 6.28788 11.52271-13.28639 23.76714-26.26347 28.9264-42.27705 6.43192-.2434-26.26429-40.11495-36.1764-56.70238-.86155-4.02945 22.22991 10.42875 33.69182 14.32153l-40.90503-18.80963c-8.8908-7.30946-17.75935-14.656-24.47619-25.58874-14.64893-9.47603-14.56694-29.0311-15.57576-47.83983-16.06143 3.3145-24.12001-14.62622-40.05195-22.52922-10.67933 1.01095-10.09777 8.92914-8.62229 21.97294 3.92515 15.99802 8.86422 25.35358 19.19156 39.21754 8.02352 3.13565 1.12667-6.77464-1.94697-13.35066 6.24443 12.82093 20.80173 24.53347 38.10498 35.87988 11.14924 6.56545 36.4478 18.54481 33.37662 12.51623-13.91539-10.79661-26.8148-27.68913-40.05195-42.5552-16.34762-7.29387-25.71989-18.94734-36.43615-29.76082 12.95895 13.97238 25.12976 25.0746 38.5 31.11039-2.14841-11.70666-1.60125-24.31185-.95129-36.9513 2.64133-12.1577 4.21406-25.11687 3.89394-39.49566.61316-7.98525.62227-16.5427-5.28464-26.7013-3.70914-2.42809-12.807-4.14239-23.64177-8.06602 5.07696-2.29618 7.45401-1.56843 21.41666-2.50325-10.50575-4.70615-32.13469-.9523-38.34848-3.29979 5.28858-3.14021 22.3925-8.24754 31.11688-3.37554l7.50974 6.67533c-7.99333-6.84072-14.96583-15.81483-25.58874-20.02598-5.07804 1.59729-8.95191 3.28619-11.12554 7.78789-2.29349-5.19192.0682-8.43687 1.94697-14.46321 1.21087-5.29876 7.09629-4.57247 13.07251-5.84091 11.74808-.26007 8.32728-1.59418 12.5965-1.94697z"
      opacity="1"
    />
    <path
      fill="#f10000"
      fill-opacity="1"
      fill-rule="evenodd"
      stroke="#050000"
      stroke-dasharray="none"
      stroke-linecap="butt"
      stroke-linejoin="miter"
      stroke-miterlimit="4"
      stroke-opacity="1"
      stroke-width="3"
      d="M142.65191 98.19913c.18851 4.09358-.44413 8.72346.5 12.5 1.56997 6.27989 6 7.59235 6 14 0 4.26636 3.5 9.32279 3.5 13.5 0 4.66667-.5 11.33333-.5 16 0 7.34039-1.84723 8.38405-4.5 15-2.1282 5.30769-1 4.16667 0 1 1.37518-4.35475-6.14519 13.14519-9.5 16.5-2.40261 2.40261-4.74776 1.24776-7 3.5-.11785.11785 0 .33333 0 .5"
    />
    <path
      fill="#f10000"
      fill-opacity="1"
      fill-rule="evenodd"
      stroke="#050000"
      stroke-dasharray="none"
      stroke-linecap="butt"
      stroke-linejoin="miter"
      stroke-miterlimit="4"
      stroke-opacity="1"
      stroke-width="3"
      d="M39.52691 62.07413c0 .27093 2.375 1.83454 2.375 2.5 0 .70833.875 1.54167.875 2.25 0 .73132-.25 1.17542-.25 1.875v4c0 .81722-.08683 1.57635.25 2.25.52343 1.04686 1.125 1.67682 1.125 2.875 0 .76104-.125.66328-.125 1.5v1.875c0 .88015.33679 1.09715.5 1.75.20787.8315.625 1.18373.625 2 0 .48517.125 1.17997.125 1.75 0 .66667 1.375 2.20833 1.375 2.875 0 .61438-.56984 1.06984-1 1.5-.48994.48994-1.84466-.15534-2.25.25"
    />
    <path
      fill="#f10000"
      fill-opacity="1"
      fill-rule="evenodd"
      stroke="#050000"
      stroke-dasharray="none"
      stroke-linecap="butt"
      stroke-linejoin="miter"
      stroke-miterlimit="4"
      stroke-opacity="1"
      stroke-width="3"
      d="M67.52691 74.44913c-.03899.03898-1.56812 0-2.375 0-.6141 0-1.3388-.125-2-.125h-2.25c-.87581 0-1.16988-.27244-1.875-.625-.67974-.33987-1.11017-.68008-1.75-1-.55429-.27714-1.15977-.69619-1.875-.875-.74233-.18558-1.15944-.32111-1.875-.5-.69737-.17434-1.2431.06595-1.875-.25-.15904-.07952-1.18782.5-1.625.5h-1.875c-.70761 0-1.4044-.4044-1.75-.75-.15505-.15505-.7745-.33087-1-.5"
    />
    <path
      fill="#f10000"
      fill-opacity="1"
      fill-rule="evenodd"
      stroke="#050000"
      stroke-dasharray="none"
      stroke-linecap="butt"
      stroke-linejoin="miter"
      stroke-miterlimit="4"
      stroke-opacity="1"
      stroke-width="3"
      d="M49.40191 71.94913c-.02144-.02144.14957 1.59829.25 2 .22137.8855.625 1.06341.625 2 0 .69798.85156.95314 1.125 1.5.41841.83682.77535.85141 1 1.75.17108.68435.08675 1.2985.375 1.875.27709.5542 1.02189 1.125 1.875 1.125h2.25c.78366 0 1.36872.09846 2-.375.64315-.48237 1.29661-.67161 1.875-1.25.55159-.55159.58731-1.22425.75-1.875.21037-.84147.375-1.18357.375-2.125 0-.75942-.03929-1.32858-.25-1.75-.04167-.08333-.08334-.16667-.125-.25"
    />
    <path
      fill="#f10000"
      fill-opacity="1"
      fill-rule="evenodd"
      stroke="#050000"
      stroke-dasharray="none"
      stroke-linecap="butt"
      stroke-linejoin="miter"
      stroke-miterlimit="4"
      stroke-opacity="1"
      stroke-width="3"
      d="M53.15191 71.57413c-.32596-.65192.79904 1.22308 1.125 1.875.28798.57597.48068.96137.75 1.5.2691.5382.13085 1.35161 0 1.875-.15786.63142-.85949-.97932-1.25-1.5-.47133-.62843-1.16479-.90484-1.625-1.25-.70812-.53109-1.18108-.72955-1.875-1.25-.36307-.2723-.44191-.31691-.75-.625"
    />
    <path
      fill="#f10000"
      fill-opacity="1"
      fill-rule="evenodd"
      stroke="#050000"
      stroke-dasharray="none"
      stroke-linecap="butt"
      stroke-linejoin="miter"
      stroke-miterlimit="4"
      stroke-opacity="1"
      stroke-width="3"
      d="M200.58293 371.48057c-1.21231.20227-3.61061 2.27149-4.59619 4.24264-.30388.60776-.7575 1.26251-1.06066 1.76777"
    />
    <path
      fill="#f10000"
      fill-opacity="1"
      fill-rule="evenodd"
      stroke="#050000"
      stroke-dasharray="none"
      stroke-linecap="butt"
      stroke-linejoin="miter"
      stroke-miterlimit="4"
      stroke-opacity="1"
      stroke-width="3"
      d="M156.03521 413.55342c-.00499.00999-2.68928-4.10349-3.18198-4.59619"
    />
    <path
      fill="#f10000"
      fill-opacity="1"
      fill-rule="evenodd"
      stroke="#050000"
      stroke-dasharray="none"
      stroke-linecap="butt"
      stroke-linejoin="miter"
      stroke-miterlimit="4"
      stroke-opacity="1"
      stroke-width="3"
      d="M134.822 393.04733c-.93392 1.86785 2.7017 4.14255 1.76777 6.0104"
    />
    <path
      fill="#f10000"
      fill-opacity="1"
      fill-rule="evenodd"
      stroke="#050000"
      stroke-dasharray="none"
      stroke-linecap="butt"
      stroke-linejoin="miter"
      stroke-miterlimit="4"
      stroke-opacity="1"
      stroke-width="3"
      d="M139.4182 373.24834c.78351 1.56702-3.53554 2.1371-3.53554 3.88908 0 1.15295.18652.9326.35356 1.76777"
    />
    <path
      fill="#f10000"
      fill-opacity="1"
      fill-rule="evenodd"
      stroke="#050000"
      stroke-dasharray="none"
      stroke-linecap="butt"
      stroke-linejoin="miter"
      stroke-miterlimit="4"
      stroke-opacity="1"
      stroke-width="3"
      d="M138.35754 356.98488c0 1.64148.45458-3.61131 1.76776-4.59619"
    />
    <path
      fill="#f10000"
      fill-opacity="1"
      fill-rule="evenodd"
      stroke="#050000"
      stroke-dasharray="none"
      stroke-linecap="butt"
      stroke-linejoin="miter"
      stroke-miterlimit="4"
      stroke-opacity="1"
      stroke-width="3"
      d="M93.1027 387.03692c0 1.50923-1.3485-3.23955-2.82842-3.53554-1.5221-.30441-1.75775-.36357-2.82843.70711"
    />
    <path
      fill="#f10000"
      fill-opacity="1"
      fill-rule="evenodd"
      stroke="#050000"
      stroke-dasharray="none"
      stroke-linecap="butt"
      stroke-linejoin="miter"
      stroke-miterlimit="4"
      stroke-opacity="1"
      stroke-width="3"
      d="M74.71793 372.54123c-1.622-.3244.81608-3.78011-.35356-4.94975"
    />
    <path
      fill="#f10000"
      fill-opacity="1"
      fill-rule="evenodd"
      stroke="#050000"
      stroke-dasharray="none"
      stroke-linecap="butt"
      stroke-linejoin="miter"
      stroke-miterlimit="4"
      stroke-opacity="1"
      stroke-width="3"
      d="M72.95016 355.21711c-1.85261-.37052 1.19847-3.96701.35355-5.65685-.37267-.74536-1.66642.15144-2.47487.35355"
    />
  </g>
</svg>
